<svg width="71" height="21" viewBox="0 0 71 21" fill="none" xmlns="http://www.w3.org/2000/svg">
<rect y="1.53845" width="21" height="2.30746" fill="#A1A1A1"/>
<line x1="3.45447" y1="1.74817" x2="3.45447" y2="9.56059e-05" stroke="#A1A1A1" stroke-width="2"/>
<line x1="7.90918" y1="1.74817" x2="7.90918" y2="9.56059e-05" stroke="#A1A1A1" stroke-width="2"/>
<line x1="12.3638" y1="1.74817" x2="12.3638" y2="9.56059e-05" stroke="#A1A1A1" stroke-width="2"/>
<line x1="16.8182" y1="1.74817" x2="16.8182" y2="9.56059e-05" stroke="#A1A1A1" stroke-width="2"/>
<rect x="0.5" y="2.27136" width="20" height="18.2288" stroke="#A1A1A1"/>
<path d="M5.319 8.311H8.113V16H6.881V9.466H5.319V8.311ZM9.69545 10.522V8.311H15.1075V9.466L11.8515 16H10.4215L13.6005 9.488H10.8725V10.522H9.69545Z" fill="#A1A1A1"/>
<path d="M27.067 16V8.146H31.731V9.015H28.057V11.468H29.223C30.0077 11.468 30.6163 11.567 31.049 11.765C31.4817 11.9557 31.7823 12.2197 31.951 12.557C32.1197 12.887 32.204 13.2683 32.204 13.701C32.204 14.1777 32.1087 14.5883 31.918 14.933C31.7347 15.2777 31.434 15.5417 31.016 15.725C30.598 15.9083 30.048 16 29.366 16H27.067ZM29.267 15.153C29.971 15.153 30.466 15.0357 30.752 14.801C31.038 14.559 31.181 14.1923 31.181 13.701C31.181 13.3637 31.1113 13.096 30.972 12.898C30.84 12.6927 30.62 12.546 30.312 12.458C30.0113 12.37 29.608 12.326 29.102 12.326H28.057V15.153H29.267ZM35.9796 9.994C36.4856 9.994 36.9182 10.104 37.2776 10.324C37.6442 10.544 37.9229 10.8557 38.1136 11.259C38.3116 11.655 38.4106 12.1207 38.4106 12.656V13.239H34.3736C34.3882 13.9063 34.5569 14.416 34.8796 14.768C35.2096 15.1127 35.6679 15.285 36.2546 15.285C36.6286 15.285 36.9586 15.252 37.2446 15.186C37.5379 15.1127 37.8386 15.01 38.1466 14.878V15.725C37.8459 15.857 37.5489 15.9523 37.2556 16.011C36.9622 16.077 36.6139 16.11 36.2106 16.11C35.6532 16.11 35.1582 15.9963 34.7256 15.769C34.3002 15.5417 33.9666 15.2043 33.7246 14.757C33.4899 14.3023 33.3726 13.7487 33.3726 13.096C33.3726 12.4507 33.4789 11.897 33.6916 11.435C33.9116 10.973 34.2159 10.6173 34.6046 10.368C35.0006 10.1187 35.4589 9.994 35.9796 9.994ZM35.9686 10.786C35.5066 10.786 35.1399 10.9363 34.8686 11.237C34.6046 11.5303 34.4469 11.941 34.3956 12.469H37.3986C37.3986 12.1317 37.3472 11.8383 37.2446 11.589C37.1419 11.3397 36.9842 11.1453 36.7716 11.006C36.5662 10.8593 36.2986 10.786 35.9686 10.786ZM42.7166 9.994C43.4426 9.994 44.0256 10.247 44.4656 10.753C44.9129 11.259 45.1366 12.0217 45.1366 13.041C45.1366 13.7083 45.0339 14.273 44.8286 14.735C44.6306 15.1897 44.3482 15.5343 43.9816 15.769C43.6222 15.9963 43.1969 16.11 42.7056 16.11C42.4049 16.11 42.1372 16.0697 41.9026 15.989C41.6679 15.9083 41.4662 15.8057 41.2976 15.681C41.1362 15.549 40.9969 15.406 40.8796 15.252H40.8136C40.8282 15.3767 40.8429 15.5343 40.8576 15.725C40.8722 15.9157 40.8796 16.0807 40.8796 16.22V18.64H39.9116V10.104H40.7036L40.8356 10.907H40.8796C40.9969 10.7383 41.1362 10.5843 41.2976 10.445C41.4662 10.3057 41.6642 10.1957 41.8916 10.115C42.1262 10.0343 42.4012 9.994 42.7166 9.994ZM42.5406 10.808C42.1446 10.808 41.8256 10.885 41.5836 11.039C41.3416 11.1857 41.1656 11.4093 41.0556 11.71C40.9456 12.0107 40.8869 12.392 40.8796 12.854V13.041C40.8796 13.525 40.9309 13.9357 41.0336 14.273C41.1362 14.6103 41.3086 14.867 41.5506 15.043C41.7999 15.219 42.1372 15.307 42.5626 15.307C42.9219 15.307 43.2152 15.208 43.4426 15.01C43.6772 14.812 43.8496 14.5443 43.9596 14.207C44.0769 13.8623 44.1356 13.47 44.1356 13.03C44.1356 12.3553 44.0036 11.8163 43.7396 11.413C43.4829 11.0097 43.0832 10.808 42.5406 10.808ZM48.9561 9.994C49.4621 9.994 49.8948 10.104 50.2541 10.324C50.6208 10.544 50.8995 10.8557 51.0901 11.259C51.2881 11.655 51.3871 12.1207 51.3871 12.656V13.239H47.3501C47.3648 13.9063 47.5335 14.416 47.8561 14.768C48.1861 15.1127 48.6445 15.285 49.2311 15.285C49.6051 15.285 49.9351 15.252 50.2211 15.186C50.5145 15.1127 50.8151 15.01 51.1231 14.878V15.725C50.8225 15.857 50.5255 15.9523 50.2321 16.011C49.9388 16.077 49.5905 16.11 49.1871 16.11C48.6298 16.11 48.1348 15.9963 47.7021 15.769C47.2768 15.5417 46.9431 15.2043 46.7011 14.757C46.4665 14.3023 46.3491 13.7487 46.3491 13.096C46.3491 12.4507 46.4555 11.897 46.6681 11.435C46.8881 10.973 47.1925 10.6173 47.5811 10.368C47.9771 10.1187 48.4355 9.994 48.9561 9.994ZM48.9451 10.786C48.4831 10.786 48.1165 10.9363 47.8451 11.237C47.5811 11.5303 47.4235 11.941 47.3721 12.469H50.3751C50.3751 12.1317 50.3238 11.8383 50.2211 11.589C50.1185 11.3397 49.9608 11.1453 49.7481 11.006C49.5428 10.8593 49.2751 10.786 48.9451 10.786ZM54.4391 9.994C54.8865 9.994 55.2751 10.0563 55.6051 10.181C55.9351 10.2983 56.1918 10.4743 56.3751 10.709C56.5585 10.9363 56.6501 11.215 56.6501 11.545C56.6501 11.9043 56.5511 12.1903 56.3531 12.403C56.1551 12.6083 55.8838 12.7587 55.5391 12.854V12.898C55.7738 12.964 55.9901 13.0557 56.1881 13.173C56.3861 13.2903 56.5438 13.4443 56.6611 13.635C56.7858 13.8257 56.8481 14.0713 56.8481 14.372C56.8481 14.6947 56.7565 14.988 56.5731 15.252C56.3971 15.516 56.1221 15.725 55.7481 15.879C55.3815 16.033 54.9085 16.11 54.3291 16.11C54.0505 16.11 53.7828 16.0953 53.5261 16.066C53.2768 16.0367 53.0495 15.9927 52.8441 15.934C52.6461 15.8753 52.4701 15.8057 52.3161 15.725V14.856C52.5655 14.9733 52.8588 15.0797 53.1961 15.175C53.5408 15.2703 53.9148 15.318 54.3181 15.318C54.6115 15.318 54.8755 15.285 55.1101 15.219C55.3521 15.153 55.5428 15.0503 55.6821 14.911C55.8215 14.7643 55.8911 14.5663 55.8911 14.317C55.8911 14.0897 55.8288 13.9063 55.7041 13.767C55.5795 13.6203 55.3925 13.5103 55.1431 13.437C54.9011 13.3637 54.5895 13.327 54.2081 13.327H53.4161V12.535H54.0541C54.5601 12.535 54.9635 12.469 55.2641 12.337C55.5721 12.1977 55.7261 11.963 55.7261 11.633C55.7261 11.3543 55.6088 11.1453 55.3741 11.006C55.1468 10.8667 54.8168 10.797 54.3841 10.797C54.0615 10.797 53.7755 10.83 53.5261 10.896C53.2841 10.9547 53.0165 11.0463 52.7231 11.171L52.3821 10.401C52.6975 10.2617 53.0275 10.159 53.3721 10.093C53.7168 10.027 54.0725 9.994 54.4391 9.994ZM59.2487 10.104V12.557H62.4497V10.104H63.4177V16H62.4497V13.371H59.2487V16H58.2807V10.104H59.2487ZM65.6476 16H64.5256L66.2086 13.525C65.9813 13.4663 65.7613 13.3747 65.5486 13.25C65.3359 13.118 65.1636 12.9383 65.0316 12.711C64.8996 12.4763 64.8336 12.1867 64.8336 11.842C64.8336 11.2773 65.0243 10.8483 65.4056 10.555C65.7869 10.2543 66.2929 10.104 66.9236 10.104H69.5636V16H68.5956V13.657H67.1656L65.6476 16ZM65.7686 11.853C65.7686 12.1903 65.8933 12.4433 66.1426 12.612C66.3993 12.7733 66.7549 12.854 67.2096 12.854H68.5956V10.907H67.0226C66.5753 10.907 66.2526 10.995 66.0546 11.171C65.8639 11.347 65.7686 11.5743 65.7686 11.853Z" fill="#A2A2A2"/>
</svg>
