<?xml version="1.0" standalone="no"?>
<!DOCTYPE svg PUBLIC "-//W3C//DTD SVG 20010904//EN"
 "http://www.w3.org/TR/2001/REC-SVG-20010904/DTD/svg10.dtd">
<svg version="1.0" xmlns="http://www.w3.org/2000/svg"
 width="430.000000pt" height="430.000000pt" viewBox="0 0 430.000000 430.000000"
 preserveAspectRatio="xMidYMid meet">
<metadata>
Created by potrace 1.14, written by Peter Selinger 2001-2017
</metadata>
<g transform="translate(0.000000,430.000000) scale(0.100000,-0.100000)"
fill="#000000" stroke="none">
<path d="M2050 4038 c-81 -89 -136 -161 -161 -213 -11 -22 -23 -47 -28 -55
-14 -22 -61 -119 -61 -125 0 -3 -10 -26 -21 -52 -54 -127 -147 -442 -175 -593
-3 -14 -7 -33 -10 -42 -3 -9 -7 -27 -9 -40 -20 -101 -25 -129 -31 -173 -4 -27
-9 -57 -11 -65 -4 -18 -29 -242 -41 -360 -11 -112 -5 -310 13 -434 8 -55 13
-101 11 -104 -3 -2 -81 -3 -174 -2 l-170 1 9 -43 c26 -142 112 -417 157 -508
l28 -55 152 -3 c84 -1 152 0 152 2 0 3 -18 40 -39 83 -54 107 -105 233 -97
240 8 8 1145 7 1153 0 8 -9 -88 -240 -107 -257 -3 -3 -13 -20 -22 -38 l-17
-33 155 3 c154 3 155 3 169 28 53 97 142 367 161 484 3 22 10 50 14 62 5 13 6
25 2 27 -4 2 -81 4 -172 4 l-165 0 1 29 c0 16 6 78 13 138 16 133 17 215 7
366 -17 269 -86 674 -152 898 -8 29 -17 63 -20 75 -23 123 -170 475 -248 597
-33 51 -184 228 -196 229 -3 0 -34 -32 -70 -71z m112 -445 c75 -159 117 -281
172 -498 14 -55 28 -111 30 -125 3 -14 16 -79 30 -145 13 -66 28 -145 31 -175
4 -30 9 -66 11 -80 27 -157 38 -476 22 -620 -10 -85 -24 -159 -32 -167 -11
-11 -607 -9 -614 2 -4 6 -7 15 -8 20 -1 6 -7 37 -14 70 -18 86 -21 416 -5 560
15 134 19 164 41 285 9 47 18 96 20 110 29 170 135 551 179 647 8 17 15 33 15
36 0 13 73 157 79 157 4 0 23 -35 43 -77z"/>
<path d="M3323 3559 c-85 -16 -162 -80 -201 -167 -15 -33 -16 -111 -17 -792
l0 -755 70 -5 c39 -3 99 -3 135 0 l65 5 1 858 c1 471 -1 859 -5 861 -3 1 -25
-1 -48 -5z"/>
<path d="M860 2701 l0 -861 139 0 138 0 -1 758 -1 757 -23 45 c-49 93 -129
154 -209 159 l-43 3 0 -861z"/>
<path d="M3184 923 c4 -16 7 -34 8 -41 1 -7 17 -22 37 -35 28 -17 51 -22 106
-21 39 0 81 3 95 7 35 10 80 61 80 92 0 25 -1 26 -57 23 -37 -2 -57 -7 -56
-15 8 -39 -85 -44 -102 -5 -8 19 -17 22 -64 22 -53 0 -53 0 -47 -27z"/>
<path d="M2523 792 l-72 -3 29 -48 c17 -27 30 -51 30 -55 0 -3 11 -24 25 -46
14 -22 22 -40 19 -40 -4 0 -1 -6 5 -13 19 -23 91 -159 91 -172 0 -23 -31 -38
-74 -37 l-43 2 -17 -61 c-9 -34 -14 -64 -11 -68 4 -3 44 -6 89 -6 75 0 87 3
124 29 51 35 96 105 207 321 48 94 92 176 98 183 10 12 1 14 -88 14 -80 0 -83
-1 -93 -31 -19 -54 -87 -191 -95 -191 -6 0 -64 112 -72 140 -1 3 -9 21 -18 41
-19 42 -30 45 -134 41z"/>
<path d="M1023 782 l-52 -3 -3 -96 -3 -96 -80 1 c-44 0 -83 1 -87 1 -5 1 -8
44 -8 96 l0 95 -85 0 -85 0 -1 -67 c-2 -96 -2 -109 0 -300 l1 -171 85 -1 85
-1 0 103 0 102 87 -1 88 -2 3 -100 3 -101 87 2 87 2 1 267 1 266 -36 4 c-20 1
-59 2 -88 0z"/>
<path d="M1487 782 c-42 -3 -49 -7 -58 -30 -6 -15 -19 -45 -29 -67 -29 -62
-190 -433 -190 -438 0 -3 39 -5 86 -5 l86 0 20 49 21 49 108 0 c103 0 108 -1
114 -22 3 -13 11 -35 17 -50 l10 -27 181 -1 181 -1 23 27 c13 15 23 32 23 38
0 7 8 19 18 27 9 9 22 24 28 35 10 17 14 14 42 -31 62 -99 52 -94 163 -93 54
0 99 2 99 4 0 4 -94 142 -147 215 -18 26 -33 52 -33 58 0 6 36 65 80 131 44
66 80 122 80 125 0 3 -45 5 -100 5 -86 0 -102 -2 -108 -17 -13 -32 -64 -113
-70 -113 -4 0 -23 29 -42 63 l-35 62 -98 3 c-53 1 -97 0 -97 -4 0 -3 26 -45
58 -93 33 -47 70 -104 84 -127 l26 -41 -26 -39 c-73 -108 -144 -204 -151 -204
-9 0 -27 37 -101 210 -32 74 -71 164 -88 200 -16 36 -32 72 -35 81 -6 19 -58
26 -140 21z m71 -241 c12 -32 22 -63 22 -70 0 -11 -91 -16 -102 -6 -3 3 0 20
7 38 7 18 18 47 24 65 7 17 16 32 19 32 4 0 17 -27 30 -59z"/>
<path d="M3082 513 l3 -268 80 -3 80 -2 31 47 c80 124 146 218 155 221 5 2 9
-9 9 -25 1 -15 2 -75 3 -133 l2 -105 80 0 80 0 3 268 2 267 -77 0 c-43 0 -83
-4 -89 -8 -13 -9 -158 -230 -167 -255 -4 -10 -13 -17 -20 -14 -9 3 -12 40 -12
140 l0 137 -83 0 -82 0 2 -267z"/>
</g>
</svg>
